<svg xmlns="http://www.w3.org/2000/svg" width="151" height="24" fill="none"><path fill="#FFC250" d="M16.89 20.284C10.468 22.28.094 20.24 0 11.344-.091 2.45 10.98 7.75 10.98 7.75l5.91 12.535Z"/><path fill="#FFD064" d="M3.124 6.354c4.483-.768 7.887 5.173 11.654 11.37 3.767 6.196 13.576 8.652 19.844 3.441 6.267-5.211 8.92-14.338 1.224-19.782C28.151-4.06 23.347 8.3 16.722 8.638c-6.625.34-6.673-4.584-13.598-2.284Z"/><circle cx="35.197" cy="11.622" r="1.967" fill="#FFE19D"/><circle cx="31.426" cy="13.097" r="1.476" fill="#FFE19D"/><circle cx="34.05" cy="15.065" r="1.148" fill="#FFE19D"/><path fill="#F7931A" d="M51.109 20V3.2h6.744c1.744 0 3.072.408 3.984 1.224.928.8 1.392 1.832 1.392 3.096 0 1.056-.288 1.904-.864 2.544a4.215 4.215 0 0 1-2.064 1.272c.96.192 1.752.672 2.376 1.44.624.752.936 1.632.936 2.64 0 1.328-.48 2.424-1.44 3.288-.96.864-2.32 1.296-4.08 1.296h-6.984Zm3.072-9.744h3.216c.864 0 1.528-.2 1.992-.6.464-.4.696-.968.696-1.704 0-.704-.232-1.256-.696-1.656-.448-.416-1.128-.624-2.04-.624H54.18v4.584Zm0 7.248h3.432c.912 0 1.616-.208 2.112-.624.512-.432.768-1.032.768-1.8 0-.784-.264-1.4-.792-1.848-.528-.448-1.24-.672-2.136-.672H54.18v4.944Zm15.14 2.784c-1.024 0-1.864-.16-2.52-.48-.656-.336-1.144-.776-1.464-1.32a3.485 3.485 0 0 1-.48-1.8c0-1.104.432-2 1.296-2.688.864-.688 2.16-1.032 3.888-1.032h3.024v-.288c0-.816-.232-1.416-.696-1.8-.464-.384-1.04-.576-1.728-.576-.624 0-1.168.152-1.632.456-.464.288-.752.72-.864 1.296h-3c.08-.864.368-1.616.864-2.256a4.9 4.9 0 0 1 1.968-1.464c.8-.352 1.696-.528 2.688-.528 1.696 0 3.032.424 4.008 1.272.976.848 1.464 2.048 1.464 3.6V20h-2.616l-.288-1.92a4.401 4.401 0 0 1-1.488 1.584c-.624.416-1.432.624-2.424.624Zm.696-2.4c.88 0 1.56-.288 2.04-.864.496-.576.808-1.288.936-2.136h-2.616c-.816 0-1.4.152-1.752.456-.352.288-.528.648-.528 1.08 0 .464.176.824.528 1.08.352.256.816.384 1.392.384ZM83.25 20c-1.248 0-2.248-.304-3-.912-.752-.608-1.128-1.688-1.128-3.24v-5.184h-2.04V8.096h2.04l.36-3.192h2.712v3.192h3.216v2.568h-3.216v5.208c0 .576.12.976.36 1.2.256.208.688.312 1.296.312h1.488V20h-2.088Zm7.941.288c-1.024 0-1.864-.16-2.52-.48-.656-.336-1.144-.776-1.464-1.32a3.485 3.485 0 0 1-.48-1.8c0-1.104.432-2 1.296-2.688.864-.688 2.16-1.032 3.888-1.032h3.024v-.288c0-.816-.232-1.416-.696-1.8-.464-.384-1.04-.576-1.728-.576-.624 0-1.168.152-1.632.456-.464.288-.752.72-.864 1.296h-3c.08-.864.368-1.616.864-2.256a4.9 4.9 0 0 1 1.968-1.464c.8-.352 1.696-.528 2.688-.528 1.696 0 3.032.424 4.008 1.272.976.848 1.464 2.048 1.464 3.6V20H95.39l-.288-1.92a4.401 4.401 0 0 1-1.488 1.584c-.624.416-1.432.624-2.424.624Zm.696-2.4c.88 0 1.56-.288 2.04-.864.496-.576.808-1.288.936-2.136h-2.616c-.816 0-1.4.152-1.752.456-.352.288-.528.648-.528 1.08 0 .464.176.824.528 1.08.352.256.816.384 1.392.384ZM105.118 20c-1.248 0-2.248-.304-3-.912-.752-.608-1.128-1.688-1.128-3.24v-5.184h-2.04V8.096h2.04l.36-3.192h2.712v3.192h3.216v2.568h-3.216v5.208c0 .576.12.976.36 1.2.256.208.688.312 1.296.312h1.488V20h-2.088Zm7.941.288c-1.024 0-1.864-.16-2.52-.48-.656-.336-1.144-.776-1.464-1.32a3.485 3.485 0 0 1-.48-1.8c0-1.104.432-2 1.296-2.688.864-.688 2.16-1.032 3.888-1.032h3.024v-.288c0-.816-.232-1.416-.696-1.8-.464-.384-1.04-.576-1.728-.576-.624 0-1.168.152-1.632.456-.464.288-.752.72-.864 1.296h-3c.08-.864.368-1.616.864-2.256a4.9 4.9 0 0 1 1.968-1.464c.8-.352 1.696-.528 2.688-.528 1.696 0 3.032.424 4.008 1.272.976.848 1.464 2.048 1.464 3.6V20h-2.616l-.288-1.92a4.401 4.401 0 0 1-1.488 1.584c-.624.416-1.432.624-2.424.624Zm.696-2.4c.88 0 1.56-.288 2.04-.864.496-.576.808-1.288.936-2.136h-2.616c-.816 0-1.4.152-1.752.456-.352.288-.528.648-.528 1.08 0 .464.176.824.528 1.08.352.256.816.384 1.392.384Zm15.148 2.4c-.896 0-1.68-.168-2.352-.504a4.24 4.24 0 0 1-1.632-1.416L124.583 20h-2.736V2.72h3.072V9.8c.384-.528.888-.992 1.512-1.392.64-.4 1.464-.6 2.472-.6 1.12 0 2.12.272 3 .816a5.846 5.846 0 0 1 2.088 2.232c.512.944.768 2.016.768 3.216 0 1.2-.256 2.272-.768 3.216a5.894 5.894 0 0 1-2.088 2.208c-.88.528-1.88.792-3 .792Zm-.648-2.688c.976 0 1.784-.328 2.424-.984.64-.656.96-1.504.96-2.544s-.32-1.896-.96-2.568c-.64-.672-1.448-1.008-2.424-1.008-.992 0-1.808.336-2.448 1.008-.624.656-.936 1.504-.936 2.544s.312 1.896.936 2.568c.64.656 1.456.984 2.448.984Zm9.944-11.352c-.56 0-1.024-.168-1.392-.504-.352-.336-.528-.76-.528-1.272s.176-.928.528-1.248c.368-.336.832-.504 1.392-.504.56 0 1.016.168 1.368.504.368.32.552.736.552 1.248s-.184.936-.552 1.272c-.352.336-.808.504-1.368.504ZM136.663 20V8.096h3.072V20h-3.072Zm10.623 0c-1.248 0-2.248-.304-3-.912-.752-.608-1.128-1.688-1.128-3.24v-5.184h-2.04V8.096h2.04l.36-3.192h2.712v3.192h3.216v2.568h-3.216v5.208c0 .576.12.976.36 1.2.256.208.688.312 1.296.312h1.488V20h-2.088Z"/></svg>