<svg width="64" height="50" fill="none" xmlns="http://www.w3.org/2000/svg"><path d="M2.376 41.6c-.32 0-.606-.07-.856-.208a1.553 1.553 0 0 1-.576-.584 1.739 1.739 0 0 1-.208-.856c0-.315.07-.597.208-.848.138-.25.33-.445.576-.584.25-.144.536-.216.856-.216.314 0 .594.072.84.216.25.139.445.333.584.584.138.25.208.533.208.848 0 .32-.07.605-.208.856-.139.245-.334.44-.584.584a1.677 1.677 0 0 1-.84.208Zm0-.328c.384 0 .693-.123.928-.368.234-.245.352-.563.352-.952 0-.384-.118-.699-.352-.944-.235-.245-.544-.368-.928-.368-.39 0-.702.123-.936.368-.235.245-.352.56-.352.944 0 .39.117.707.352.952.234.245.546.368.936.368Zm-.664-.48V39.08h.8a.61.61 0 0 1 .424.144.5.5 0 0 1 .16.392c0 .261-.126.43-.376.504l.448.672h-.496l-.392-.648h-.144v.648h-.424Zm.424-.968h.32a.28.28 0 0 0 .152-.04c.042-.032.064-.083.064-.152 0-.064-.022-.11-.064-.136a.28.28 0 0 0-.152-.04h-.32v.368ZM6.974 44v-5.6h2.112c.582 0 1.022.136 1.32.408.299.272.448.613.448 1.024 0 .357-.096.643-.288.856-.192.208-.424.35-.696.424.214.043.403.128.568.256a1.376 1.376 0 0 1 .544 1.104 1.434 1.434 0 0 1-.832 1.328c-.272.133-.605.2-1 .2H6.974Zm.848-3.2h1.16c.326 0 .574-.075.744-.224.17-.155.256-.365.256-.632 0-.261-.085-.47-.256-.624-.165-.155-.418-.232-.76-.232H7.822V40.8Zm0 2.504h1.216c.342 0 .606-.08.792-.24.192-.16.288-.384.288-.672 0-.288-.098-.515-.296-.68-.197-.17-.464-.256-.8-.256h-1.2v1.848Zm5.402.792c-.336 0-.614-.056-.832-.168a1.16 1.16 0 0 1-.488-.44 1.204 1.204 0 0 1-.16-.608c0-.384.15-.688.448-.912.298-.224.725-.336 1.28-.336h1.04v-.072c0-.31-.086-.541-.256-.696-.166-.155-.382-.232-.648-.232-.235 0-.44.059-.616.176a.711.711 0 0 0-.312.504h-.848c.026-.288.122-.533.288-.736.17-.208.384-.365.64-.472a2.15 2.15 0 0 1 .856-.168c.554 0 .984.147 1.288.44.304.288.456.683.456 1.184V44h-.736l-.072-.68a1.507 1.507 0 0 1-.488.552c-.214.15-.494.224-.84.224Zm.168-.688a.99.99 0 0 0 .576-.16c.16-.112.282-.259.368-.44a1.7 1.7 0 0 0 .168-.6h-.944c-.336 0-.576.059-.72.176a.553.553 0 0 0-.208.44c0 .181.066.325.2.432.138.101.325.152.56.152Zm4.542.592c-.389 0-.698-.093-.928-.28-.229-.192-.344-.53-.344-1.016v-1.96h-.68v-.712h.68l.104-1.008h.744v1.008h1.12v.712h-1.12v1.96c0 .219.046.37.136.456.096.08.259.12.488.12h.456V44h-.656Zm2.915.096c-.336 0-.614-.056-.832-.168a1.16 1.16 0 0 1-.488-.44 1.204 1.204 0 0 1-.16-.608c0-.384.15-.688.448-.912.298-.224.725-.336 1.28-.336h1.04v-.072c0-.31-.086-.541-.256-.696-.166-.155-.382-.232-.648-.232-.235 0-.44.059-.616.176a.711.711 0 0 0-.312.504h-.848c.026-.288.122-.533.288-.736.17-.208.384-.365.64-.472a2.15 2.15 0 0 1 .856-.168c.554 0 .984.147 1.288.44.304.288.456.683.456 1.184V44h-.736l-.072-.68a1.507 1.507 0 0 1-.488.552c-.214.15-.494.224-.84.224Zm.168-.688a.99.99 0 0 0 .576-.16c.16-.112.282-.259.368-.44a1.7 1.7 0 0 0 .168-.6h-.944c-.336 0-.576.059-.72.176a.553.553 0 0 0-.208.44c0 .181.066.325.2.432.138.101.325.152.56.152Zm4.542.592c-.389 0-.698-.093-.928-.28-.229-.192-.344-.53-.344-1.016v-1.96h-.68v-.712h.68l.104-1.008h.744v1.008h1.12v.712h-1.12v1.96c0 .219.046.37.136.456.096.08.259.12.488.12h.456V44h-.656Zm2.915.096c-.336 0-.614-.056-.832-.168a1.16 1.16 0 0 1-.488-.44 1.204 1.204 0 0 1-.16-.608c0-.384.15-.688.448-.912.298-.224.725-.336 1.28-.336h1.04v-.072c0-.31-.086-.541-.256-.696-.166-.155-.382-.232-.648-.232-.235 0-.44.059-.616.176a.711.711 0 0 0-.312.504h-.848c.026-.288.122-.533.288-.736.17-.208.384-.365.64-.472a2.15 2.15 0 0 1 .856-.168c.554 0 .984.147 1.288.44.304.288.456.683.456 1.184V44h-.736l-.072-.68a1.507 1.507 0 0 1-.488.552c-.214.15-.494.224-.84.224Zm.168-.688a.99.99 0 0 0 .576-.16c.16-.112.282-.259.368-.44a1.7 1.7 0 0 0 .168-.6h-.944c-.336 0-.576.059-.72.176a.553.553 0 0 0-.208.44c0 .181.066.325.2.432.138.101.325.152.56.152Zm5.189.688c-.31 0-.585-.061-.825-.184a1.421 1.421 0 0 1-.56-.52L32.36 44h-.76v-5.76h.848v2.408c.127-.187.303-.352.527-.496.225-.144.513-.216.865-.216.383 0 .722.09 1.016.272.293.181.522.43.688.744.17.315.255.672.255 1.072s-.085.757-.256 1.072c-.165.31-.394.555-.688.736a1.952 1.952 0 0 1-1.023.264Zm-.145-.736c.363 0 .662-.123.897-.368.234-.25.352-.576.352-.976 0-.261-.054-.493-.16-.696a1.175 1.175 0 0 0-.44-.472 1.192 1.192 0 0 0-.648-.176c-.363 0-.662.125-.896.376-.23.25-.344.573-.344.968 0 .4.114.725.343.976.235.245.534.368.897.368Zm3.51-4.08a.576.576 0 0 1-.4-.144.51.51 0 0 1-.152-.376c0-.15.05-.272.152-.368a.558.558 0 0 1 .4-.152c.16 0 .29.05.392.152.106.096.16.219.16.368 0 .15-.054.275-.16.376a.547.547 0 0 1-.392.144ZM36.772 44v-3.968h.848V44h-.848Zm3.631 0c-.39 0-.698-.093-.928-.28-.23-.192-.344-.53-.344-1.016v-1.96h-.68v-.712h.68l.104-1.008h.744v1.008h1.12v.712h-1.12v1.96c0 .219.046.37.136.456.096.08.259.12.488.12h.456V44h-.656Zm3.506 0v-.608c.363-.288.71-.579 1.04-.872.33-.293.624-.581.88-.864a4.47 4.47 0 0 0 .616-.84c.15-.277.224-.544.224-.8 0-.17-.03-.33-.088-.48a.759.759 0 0 0-.288-.368c-.133-.096-.312-.144-.536-.144-.336 0-.59.107-.76.32a1.18 1.18 0 0 0-.24.768h-.824c.005-.395.088-.725.248-.992.166-.267.384-.47.656-.608.277-.139.59-.208.936-.208.528 0 .95.15 1.264.448.32.293.48.704.48 1.232 0 .315-.077.627-.232.936-.15.31-.346.608-.592.896-.24.283-.498.55-.776.8-.277.25-.541.477-.792.68h2.56V44H43.91Zm6.868.096c-.507 0-.944-.12-1.312-.36a2.396 2.396 0 0 1-.84-1.016c-.192-.437-.288-.944-.288-1.52 0-.576.096-1.08.288-1.512.197-.437.477-.776.84-1.016.368-.245.805-.368 1.312-.368.506 0 .941.123 1.304.368.362.24.64.579.832 1.016.197.432.296.936.296 1.512s-.099 1.083-.296 1.52c-.192.432-.47.77-.832 1.016-.363.24-.798.36-1.304.36Zm0-.76c.304 0 .573-.085.808-.256.24-.17.426-.416.56-.736.133-.32.2-.701.2-1.144 0-.443-.067-.824-.2-1.144a1.657 1.657 0 0 0-.56-.736 1.338 1.338 0 0 0-.808-.256c-.31 0-.582.085-.816.256-.235.17-.419.416-.552.736-.134.32-.2.701-.2 1.144 0 .443.066.824.2 1.144.133.32.317.565.552.736.234.17.506.256.816.256Zm3.202.664v-.608c.363-.288.71-.579 1.04-.872.331-.293.624-.581.88-.864a4.47 4.47 0 0 0 .616-.84c.15-.277.224-.544.224-.8 0-.17-.029-.33-.088-.48a.759.759 0 0 0-.288-.368c-.133-.096-.312-.144-.536-.144-.336 0-.589.107-.76.32a1.18 1.18 0 0 0-.24.768h-.824c.006-.395.088-.725.248-.992.166-.267.384-.47.656-.608.278-.139.59-.208.936-.208.528 0 .95.15 1.264.448.32.293.48.704.48 1.232 0 .315-.077.627-.232.936-.149.31-.346.608-.592.896-.24.283-.498.55-.776.8-.277.25-.54.477-.792.68h2.56V44H53.98Zm6.868.096c-.507 0-.944-.12-1.312-.36a2.396 2.396 0 0 1-.84-1.016c-.192-.437-.288-.944-.288-1.52 0-.576.096-1.08.288-1.512.197-.437.477-.776.84-1.016.368-.245.805-.368 1.312-.368s.941.123 1.304.368c.363.24.64.579.832 1.016.197.432.296.936.296 1.512s-.099 1.083-.296 1.52c-.192.432-.47.77-.832 1.016-.363.24-.797.36-1.304.36Zm0-.76c.304 0 .573-.085.808-.256.24-.17.427-.416.56-.736.133-.32.2-.701.2-1.144 0-.443-.067-.824-.2-1.144a1.657 1.657 0 0 0-.56-.736 1.338 1.338 0 0 0-.808-.256c-.31 0-.581.085-.816.256-.235.17-.419.416-.552.736-.133.32-.2.701-.2 1.144 0 .443.067.824.2 1.144.133.32.317.565.552.736.235.17.507.256.816.256Z" fill="#FFE9D5"/><path d="M28.89 20.284c-6.423 1.997-16.797-.044-16.89-8.94C11.909 2.45 22.98 7.75 22.98 7.75l5.91 12.535Z" fill="#FFC250"/><path d="M15.124 6.354c4.483-.768 7.887 5.173 11.654 11.37 3.767 6.196 13.576 8.652 19.844 3.441 6.267-5.211 8.92-14.338 1.224-19.782C40.151-4.06 35.347 8.3 28.722 8.638c-6.625.34-6.673-4.584-13.598-2.284Z" fill="#FFD064"/><circle cx="47.197" cy="11.622" r="1.967" fill="#FFE19D"/><circle cx="43.426" cy="13.097" r="1.476" fill="#FFE19D"/><circle cx="46.05" cy="15.065" r="1.148" fill="#FFE19D"/></svg>